<svg width="600" height="244" viewBox="0 0 600 244" fill="none" xmlns="http://www.w3.org/2000/svg">
<path d="M331.01 132.25C339.28 132.25 345.2 135.21 349.1 140.05C352.84 145.04 354.56 151.9 354.56 159.86V165.48C354.56 167.35 353 168.91 351.13 168.91C349.26 168.91 347.7 167.35 347.7 165.48V159.4C347.7 153.63 346.61 148.48 343.96 144.74C341.31 141 337.25 138.81 331.17 138.81C325.09 138.81 321.03 140.99 318.38 144.74C315.73 148.48 314.64 153.63 314.64 159.4V216.17C314.64 221.94 315.73 227.09 318.38 230.68C321.03 234.42 325.09 236.61 331.17 236.61C337.25 236.61 341.31 234.43 343.96 230.68C346.61 227.09 347.7 221.95 347.7 216.17V206.66C347.7 204.79 349.26 203.23 351.13 203.23C353 203.23 354.56 204.79 354.56 206.66V215.71C354.56 223.67 352.84 230.53 349.1 235.36C345.2 240.35 339.27 243.31 331.01 243.31C322.75 243.31 316.82 240.35 313.07 235.36C309.17 230.52 307.45 223.66 307.45 215.71V159.87C307.45 151.91 309.17 145.05 313.07 140.06C316.82 135.22 322.75 132.25 331.01 132.25Z" fill="black"/>
<path d="M425.69 145.36L403.7 238.79C403.23 240.82 401.36 242.22 399.33 242.22C397.15 242.22 395.43 240.82 394.96 238.79L372.66 145.67V239.1C372.66 240.97 371.26 242.38 369.54 242.38C367.67 242.38 366.26 240.98 366.26 239.1V138.96C366.26 135.68 368.76 133.19 372.03 133.19C374.68 133.19 377.02 135.06 377.65 137.56L398.71 226.47C398.87 227.41 400.11 227.41 400.27 226.47L421.17 137.56C421.79 135.06 424.13 133.19 426.79 133.19C430.07 133.19 432.56 135.69 432.56 138.96V238.94C432.56 240.81 431 242.37 429.13 242.37C427.26 242.37 425.7 240.81 425.7 238.94V145.36H425.69Z" fill="black"/>
<path d="M496.03 133.19C498.37 133.19 500.08 135.53 499.46 137.71L472.63 222.09C470.76 228.8 468.89 233.79 465.3 237.38C462.18 240.34 457.97 242.21 452.04 242.37C449.86 242.37 448.61 241.12 448.61 239.09C448.61 237.37 449.86 235.97 451.57 235.81C459.37 235.03 462.49 230.98 464.83 223.18L468.26 212.89C469.04 210.86 469.04 208.83 468.26 206.81L444.71 137.71C443.93 135.53 445.65 133.19 447.99 133.19C449.55 133.19 450.8 134.13 451.27 135.53L463.28 171.72L471.24 196.05C472.18 198.7 473.42 198.7 474.2 196.05L481.53 171.56L492.6 135.69C493.07 134.13 494.47 133.19 496.03 133.19Z" fill="black"/>
<path d="M511.01 187.78C511.01 185.91 512.41 184.5 514.29 184.5H536.44C538.31 184.5 539.72 185.9 539.72 187.78C539.72 189.65 538.32 191.06 536.44 191.06H514.29C512.41 191.06 511.01 189.65 511.01 187.78Z" fill="black"/>
<path d="M575.58 132.25C584.16 132.25 589.93 135.21 593.67 140.2C597.41 145.19 599.13 152.05 599.13 160.01C599.13 170.46 594.61 178.73 588.84 186.21C585.88 189.95 582.76 193.54 579.33 196.97C572.47 203.99 566.23 211.48 562.33 220.05C560.3 224.42 559.37 229.25 559.21 234.56C559.21 235.18 559.83 235.81 560.46 235.81H594.93C596.8 235.81 598.21 237.21 598.21 239.09C598.21 240.97 596.81 242.37 594.93 242.37H556.72C554.07 242.37 552.04 240.34 552.04 237.69V237.07C552.04 224.12 556.56 214.77 562.49 206.65C565.45 202.75 568.57 199.01 572 195.42C578.86 188.56 585.1 181.69 589 173.74C591.03 169.84 591.96 165.32 591.96 160.33C591.96 147.7 587.75 138.81 575.27 138.81C569.19 138.81 565.13 141.15 562.64 144.89C559.99 148.79 558.9 154.09 558.9 159.86V163.91C558.9 165.78 557.34 167.34 555.47 167.34C553.6 167.34 552.04 165.78 552.04 163.91V160.32C552.04 152.36 553.76 145.35 557.5 140.36C561.24 135.37 567 132.25 575.58 132.25Z" fill="black"/>
<path d="M110.7 143.83L123.68 134.35V240.75H110.7V143.83ZM195.24 113.03V62.4L110.7 0.699951V111.5L96.27 122.03V62.43L0.48999 132.33V240.76H13.47V138.93L83.29 87.98V131.51L41.89 161.72V240.75H96.27V154.35L83.29 163.83V227.77H54.87V168.32L123.68 118.1V26.2599L182.26 69V103.56L142.02 74.19V240.76H155V99.74L244.88 165.33V227.77H195.24V145.35L182.26 135.87V240.75H257.87V158.73L195.24 113.03Z" fill="url(#paint0_linear_34_12)"/>
<defs>
<linearGradient id="paint0_linear_34_12" x1="0.48239" y1="120.731" x2="257.867" y2="120.731" gradientUnits="userSpaceOnUse">
<stop stop-color="#DC7C93"/>
<stop offset="0.0922" stop-color="#D67A94"/>
<stop offset="0.2384" stop-color="#C77596"/>
<stop offset="0.4204" stop-color="#AD6D98"/>
<stop offset="0.6312" stop-color="#84619A"/>
<stop offset="0.8631" stop-color="#46549C"/>
<stop offset="1" stop-color="#004C9C"/>
</linearGradient>
</defs>
</svg>
